HIERARCHY
ROOT hip
{
  OFFSET 0.00112043 5.09927 -9.65472
  CHANNELS 6 Xposition Yposition Zposition Zrotation Xrotation Yrotation
  JOINT abdomen
  {
    OFFSET 0 -1.186 -1.5018
    CHANNELS 3 Zrotation Xrotation Yrotation
    JOINT abdomen2
    {
      OFFSET 0 9.964 0.2134
      CHANNELS 3 Zrotation Xrotation Yrotation
      JOINT chest
      {
        OFFSET 0 13.134 -3.2573
        CHANNELS 3 Zrotation Xrotation Yrotation
        JOINT neck
        {
          OFFSET 0 20.686 -1.6905
          CHANNELS 3 Zrotation Xrotation Yrotation
          JOINT head
          {
            OFFSET 0 7.238 -0.1237
            CHANNELS 3 Zrotation Xrotation Yrotation
            End Site
            {
              OFFSET 0 0 0
            }
          }
        }
        JOINT lCollar
        {
          OFFSET 1.7069 20.075 5.0056
          CHANNELS 3 Zrotation Xrotation Yrotation
          JOINT lShldr
          {
            OFFSET 13.6458 -0.047 -4.849
            CHANNELS 3 Zrotation Xrotation Yrotation
            JOINT lForeArm
            {
              OFFSET 28.3255 -0.9759 2.2888
              CHANNELS 3 Zrotation Xrotation Yrotation
              JOINT lHand
              {
                OFFSET 22.1583 -0.53 10.8316
                CHANNELS 3 Zrotation Xrotation Yrotation
                JOINT lThumb1
                {
                  OFFSET 0.786 0.112 2.5817
                  CHANNELS 3 Zrotation Xrotation Yrotation
                  JOINT lThumb2
                  {
                    OFFSET 0.3601 -0.878 4.2331
                    CHANNELS 3 Zrotation Xrotation Yrotation
                    JOINT lThumb2_End
                    {
                      OFFSET 1.8127 -1.216 2.2227
                      CHANNELS 3 Zrotation Xrotation Yrotation
                      End Site
                      {
                        OFFSET 0.0181 -0.0122 0.0222
                      }
                    }
                  }
                }
                JOINT lCarpal1
                {
                  OFFSET 0.9571 1.114 1.7695
                  CHANNELS 3 Zrotation Xrotation Yrotation
                  JOINT lIndex1
                  {
                    OFFSET 4.1246 0.487 4.1451
                    CHANNELS 3 Zrotation Xrotation Yrotation
                    JOINT lIndex2
                    {
                      OFFSET 3.4052 -1.454 2.7682
                      CHANNELS 3 Zrotation Xrotation Yrotation
                      JOINT lIndex2_End
                      {
                        OFFSET 1.4531 -1.795 1.2713
                        CHANNELS 3 Zrotation Xrotation Yrotation
                        End Site
                        {
                          OFFSET 0.0145 -0.0179 0.0127
                        }
                      }
                    }
                  }
                  JOINT lMid1
                  {
                    OFFSET 5.6954 0.21 2.1184
                    CHANNELS 3 Zrotation Xrotation Yrotation
                    JOINT lMid2
                    {
                      OFFSET 3.9766 -1.54 2.3863
                      CHANNELS 3 Zrotation Xrotation Yrotation
                      JOINT lMid2_End
                      {
                        OFFSET 1.4042 -1.926 1.125
                        CHANNELS 3 Zrotation Xrotation Yrotation
                        End Site
                        {
                          OFFSET 0.014 -0.0193 0.0113
                        }
                      }
                    }
                  }
                }
                JOINT lCarpal2
                {
                  OFFSET 2.0956 0.66 -0.3894
                  CHANNELS 3 Zrotation Xrotation Yrotation
                  JOINT lRing1
                  {
                    OFFSET 5.0395 -0.09 2.4971
                    CHANNELS 3 Zrotation Xrotation Yrotation
                    JOINT lRing2
                    {
                      OFFSET 3.7921 -1.552 1.4806
                      CHANNELS 3 Zrotation Xrotation Yrotation
                      JOINT lRing2_End
                      {
                        OFFSET 1.4655 -1.808 0.9609
                        CHANNELS 3 Zrotation Xrotation Yrotation
                        End Site
                        {
                          OFFSET 0.0147 -0.0181 0.0096
                        }
                      }
                    }
                  }
                  JOINT lPinky1
                  {
                    OFFSET 4.9141 -1.269 0.3591
                    CHANNELS 3 Zrotation Xrotation Yrotation
                    JOINT lPinky2
                    {
                      OFFSET 3.1477 -1.685 0.8462
                      CHANNELS 3 Zrotation Xrotation Yrotation
                      JOINT lPinky2_End
                      {
                        OFFSET 0.8055 -1.585 0.7955
                        CHANNELS 3 Zrotation Xrotation Yrotation
                        End Site
                        {
                          OFFSET 0.0081 -0.0158 0.008
                        }
                      }
                    }
                  }
                }
              }
            }
          }
        }
        JOINT rCollar
        {
          OFFSET -1.7069 20.075 5.0056
          CHANNELS 3 Zrotation Xrotation Yrotation
          JOINT rShldr
          {
            OFFSET -13.6458 -0.047 -4.849
            CHANNELS 3 Zrotation Xrotation Yrotation
            JOINT rForeArm
            {
              OFFSET -28.3255 -0.9759 2.2888
              CHANNELS 3 Zrotation Xrotation Yrotation
              JOINT rHand
              {
                OFFSET -22.1583 -0.53 10.8316
                CHANNELS 3 Zrotation Xrotation Yrotation
                JOINT rThumb1
                {
                  OFFSET -0.786 0.112 2.5817
                  CHANNELS 3 Zrotation Xrotation Yrotation
                  JOINT rThumb2
                  {
                    OFFSET -0.3601 -0.878 4.2331
                    CHANNELS 3 Zrotation Xrotation Yrotation
                    JOINT rThumb2_End
                    {
                      OFFSET -1.8127 -1.216 2.2227
                      CHANNELS 3 Zrotation Xrotation Yrotation
                      End Site
                      {
                        OFFSET -0.0181 -0.0122 0.0222
                      }
                    }
                  }
                }
                JOINT rCarpal1
                {
                  OFFSET -0.9571 1.114 1.7695
                  CHANNELS 3 Zrotation Xrotation Yrotation
                  JOINT rIndex1
                  {
                    OFFSET -4.1246 0.487 4.1451
                    CHANNELS 3 Zrotation Xrotation Yrotation
                    JOINT rIndex2
                    {
                      OFFSET -3.4052 -1.454 2.7682
                      CHANNELS 3 Zrotation Xrotation Yrotation
                      JOINT rIndex2_End
                      {
                        OFFSET -1.4531 -1.795 1.2713
                        CHANNELS 3 Zrotation Xrotation Yrotation
                        End Site
                        {
                          OFFSET -0.0145 -0.018 0.0127
                        }
                      }
                    }
                  }
                  JOINT rMid1
                  {
                    OFFSET -5.6954 0.21 2.1184
                    CHANNELS 3 Zrotation Xrotation Yrotation
                    JOINT rMid2
                    {
                      OFFSET -3.9766 -1.54 2.3863
                      CHANNELS 3 Zrotation Xrotation Yrotation
                      JOINT rMid2_End
                      {
                        OFFSET -1.4042 -1.926 1.125
                        CHANNELS 3 Zrotation Xrotation Yrotation
                        End Site
                        {
                          OFFSET -0.014 -0.0193 0.0113
                        }
                      }
                    }
                  }
                }
                JOINT rCarpal2
                {
                  OFFSET -2.0956 0.66 -0.3894
                  CHANNELS 3 Zrotation Xrotation Yrotation
                  JOINT rRing1
                  {
                    OFFSET -5.0395 -0.09 2.4971
                    CHANNELS 3 Zrotation Xrotation Yrotation
                    JOINT rRing2
                    {
                      OFFSET -3.7921 -1.552 1.4806
                      CHANNELS 3 Zrotation Xrotation Yrotation
                      JOINT rRing2_End
                      {
                        OFFSET -1.4655 -1.808 0.9609
                        CHANNELS 3 Zrotation Xrotation Yrotation
                        End Site
                        {
                          OFFSET -0.0147 -0.0181 0.0096
                        }
                      }
                    }
                  }
                  JOINT rPinky1
                  {
                    OFFSET -4.9141 -1.269 0.3592
                    CHANNELS 3 Zrotation Xrotation Yrotation
                    JOINT rPinky2
                    {
                      OFFSET -3.1477 -1.685 0.8462
                      CHANNELS 3 Zrotation Xrotation Yrotation
                      JOINT rPinky2_End
                      {
                        OFFSET -0.8055 -1.585 0.7955
                        CHANNELS 3 Zrotation Xrotation Yrotation
                        End Site
                        {
                          OFFSET -0.0081 -0.0158 0.008
                        }
                      }
                    }
                  }
                }
              }
            }
          }
        }
      }
    }
  }
  JOINT lThigh
  {
    OFFSET 8.367 -8.2066 0.5982
    CHANNELS 3 Zrotation Xrotation Yrotation
    JOINT lShin
    {
      OFFSET 2.1923 -43.463 -0.4932
      CHANNELS 3 Zrotation Xrotation Yrotation
      JOINT lFoot
      {
        OFFSET 0.7333 -45.8593 -2.6451
        CHANNELS 3 Zrotation Xrotation Yrotation
        End Site
        {
          OFFSET 2.6618 -4.2699 12.3931
        }
      }
    }
  }
  JOINT rThigh
  {
    OFFSET -8.367 -8.2066 0.5982
    CHANNELS 3 Zrotation Xrotation Yrotation
    JOINT rShin
    {
      OFFSET -2.1923 -43.463 -0.4931
      CHANNELS 3 Zrotation Xrotation Yrotation
      JOINT rFoot
      {
        OFFSET -0.7333 -45.8593 -2.6451
        CHANNELS 3 Zrotation Xrotation Yrotation
        End Site
        {
          OFFSET -2.6618 -4.2699 12.3931
        }
      }
    }
  }
}
MOTION
Frames:	4
Frame Time:	0.0333333
-0.713469 87.938 3.80423 -0 -31.623 -0 -0.135736 10.3597 -0.0753531 -0.264005 20.7195 -0.128506 -0.264006 20.7195 -0.128506 9.63819e-006 -35.5257 5.54343e-006 -5.94443e-008 -26.6398 -8.26107e-008 -8.00266 -0.194471 -1.27229e-007 -56.1107 -0.483243 1.77056 0.172072 0.0931227 -10.2087 -6.51222 2.57104 0.0273078 1.389e-006 -4.77329e-007 1.18317e-006 0 0 -3.18055e-015 3.97569e-016 1.59028e-015 -0 -7.95139e-016 0 -0 1.389e-006 -4.77329e-007 1.18317e-006 -0 -1.59028e-015 -0 3.97569e-016 -1.59028e-015 -1.59028e-015 1.389e-006 -4.77329e-007 1.18317e-006 -0 -1.59028e-015 -0 3.97569e-016 -1.59028e-015 -1.59028e-015 -7.95139e-016 0 -0 1.389e-006 -4.77329e-007 1.18317e-006 -0 -1.59028e-015 -0 3.97569e-016 -1.59028e-015 -1.59028e-015 1.389e-006 -4.77329e-007 1.18317e-006 -0 -1.59028e-015 -0 3.97569e-016 -1.59028e-015 -1.59028e-015 7.99916 -0.194714 6.36076e-007 56.3185 -0.490173 -1.03846 -1.92523 -0.31018 9.11583 6.49224 2.60876 0.0253969 7.62184e-008 2.18187e-007 -1.17803e-006 -1.02705e-007 4.79921e-007 6.98108e-007 -9.34477e-006 -3.12786e-006 8.30016e-007 9.93923e-016 -1.59028e-015 1.59028e-015 7.62184e-008 2.18187e-007 -1.17803e-006 -1.02705e-007 4.79921e-007 6.98108e-007 -9.34477e-006 -3.12786e-006 8.30016e-007 7.62184e-008 2.18187e-007 -1.17803e-006 -1.02705e-007 4.79921e-007 6.98108e-007 -9.34477e-006 -3.12786e-006 8.30016e-007 9.93923e-016 -1.59028e-015 1.59028e-015 7.62184e-008 2.18187e-007 -1.17803e-006 -1.02705e-007 4.79921e-007 6.98108e-007 -9.34477e-006 -3.12786e-006 8.30016e-007 7.62184e-008 2.18187e-007 -1.17803e-006 -1.02705e-007 4.79921e-007 6.98108e-007 -9.34477e-006 -3.12786e-006 8.30016e-007 6.90114 15.3101 11.92 0.435298 32.5022 0.166113 -11.2226 -17.1579 2.21709 -5.90553 15.1807 -12.2296 -0.454076 32.8611 -0.138092 10.358 -17.5902 -2.571 
-0.713569 87.9433 3.82147 -0 -31.0437 -0 -0.137843 10.2463 -0.0769024 -0.268048 20.4928 -0.131514 -0.268048 20.4928 -0.131515 -1.4629e-006 -34.9281 -1.56938e-006 -1.78157e-007 -26.189 -9.96802e-008 -8.00266 -0.194472 -5.52017e-007 -56.1107 -0.483241 1.77056 0.172074 0.0931201 -10.2087 -6.5122 2.57103 0.027312 2.51682e-006 5.00933e-007 3.51303e-007 -2.37441e-006 1.36769e-006 -4.34677e-008 7.95139e-016 1.59028e-015 -0 -2.78299e-015 0 -0 2.51682e-006 5.00933e-007 3.51303e-007 -2.37441e-006 1.36769e-006 -4.34677e-008 1.19271e-015 1.59028e-015 -3.18055e-015 2.51682e-006 5.00933e-007 3.51303e-007 -2.37441e-006 1.36769e-006 -4.34677e-008 1.19271e-015 1.59028e-015 -3.18055e-015 -2.78299e-015 0 -0 2.51682e-006 5.00933e-007 3.51303e-007 -2.37441e-006 1.36769e-006 -4.34677e-008 1.19271e-015 1.59028e-015 -3.18055e-015 2.51682e-006 5.00933e-007 3.51303e-007 -2.37441e-006 1.36769e-006 -4.34677e-008 1.19271e-015 1.59028e-015 -3.18055e-015 7.99916 -0.194718 8.75993e-007 56.3185 -0.490173 -1.03845 -1.92525 -0.310187 9.11583 6.49223 2.60876 0.0253986 -5.96354e-015 3.18055e-015 1.59028e-015 -3.18055e-015 0 -1.59028e-015 -1.02755e-007 4.79846e-007 6.98148e-007 -2.78299e-015 1.59028e-015 1.59028e-015 -1.39149e-015 0 6.36111e-015 -3.97569e-015 -1.59028e-015 -0 -1.02755e-007 4.79846e-007 6.98148e-007 -1.39149e-015 0 6.36111e-015 -3.97569e-015 -1.59028e-015 -0 -1.02755e-007 4.79846e-007 6.98148e-007 -2.78299e-015 1.59028e-015 1.59028e-015 -1.39149e-015 0 6.36111e-015 -3.97569e-015 -1.59028e-015 -0 -1.02755e-007 4.79846e-007 6.98148e-007 -1.39149e-015 0 6.36111e-015 -3.97569e-015 -1.59028e-015 -0 -1.02755e-007 4.79846e-007 6.98148e-007 6.88729 14.6172 11.9646 0.461505 32.6519 0.157127 -11.2209 -17.1517 2.21797 -5.8924 14.4874 -12.2667 -0.484146 33.0096 -0.127336 10.3562 -17.5843 -2.57182 
-0.713651 87.9473 3.83582 -0 -30.5637 -0 -0.139621 10.1528 -0.078093 -0.271486 20.3058 -0.133814 -0.271486 20.3057 -0.133814 8.62109e-006 -34.3899 5.44504e-006 2.44563e-007 -25.7828 2.10838e-008 -8.00266 -0.194468 8.84169e-008 -56.1107 -0.483238 1.77056 0.172051 0.0931171 -10.2087 -6.5122 2.57104 0.0273104 -3.99339e-006 1.65468e-007 -3.52412e-007 -1.8063e-008 -6.85824e-007 -4.96916e-007 -7.95139e-016 0 -1.59028e-015 -7.15625e-015 -1.59028e-015 -0 -3.99339e-006 1.65468e-007 -3.52412e-007 -1.8063e-008 -6.85824e-007 -4.96916e-007 4.41391e-032 1.59028e-015 -1.59028e-015 -3.99339e-006 1.65468e-007 -3.52412e-007 -1.8063e-008 -6.85824e-007 -4.96916e-007 4.41391e-032 1.59028e-015 -1.59028e-015 -7.15625e-015 -1.59028e-015 -0 -3.99339e-006 1.65468e-007 -3.52412e-007 -1.8063e-008 -6.85824e-007 -4.96916e-007 4.41391e-032 1.59028e-015 -1.59028e-015 -3.99339e-006 1.65468e-007 -3.52412e-007 -1.8063e-008 -6.85824e-007 -4.96916e-007 4.41391e-032 1.59028e-015 -1.59028e-015 7.99916 -0.194716 2.6599e-007 56.3185 -0.490166 -1.03846 -1.92524 -0.310186 9.11583 6.49222 2.60875 0.0253935 -7.61339e-008 -2.18399e-007 1.17796e-006 -2.66752e-008 6.98181e-007 -4.79783e-007 2.66752e-008 -6.98181e-007 4.79783e-007 -1.19271e-015 1.59028e-015 -1.59028e-015 -7.61339e-008 -2.18399e-007 1.17796e-006 -2.66752e-008 6.98181e-007 -4.79783e-007 2.66752e-008 -6.98181e-007 4.79783e-007 -7.61339e-008 -2.18399e-007 1.17796e-006 -2.66752e-008 6.98181e-007 -4.79783e-007 2.66752e-008 -6.98181e-007 4.79783e-007 -1.19271e-015 1.59028e-015 -1.59028e-015 -7.61339e-008 -2.18399e-007 1.17796e-006 -2.66752e-008 6.98181e-007 -4.79783e-007 2.66752e-008 -6.98181e-007 4.79783e-007 -7.61339e-008 -2.18399e-007 1.17796e-006 -2.66752e-008 6.98181e-007 -4.79783e-007 2.66752e-008 -6.98181e-007 4.79783e-007 6.87628 14.0431 12.0014 0.483118 32.7751 0.149621 -11.2195 -17.1467 2.2187 -5.88186 13.9123 -12.2974 -0.50917 33.1326 -0.118369 10.3546 -17.5795 -2.5725 
-0.713732 87.9509 3.8502 -0 -30.0833 -0 -0.141346 10.0592 -0.0793683 -0.274799 20.1186 -0.136302 -0.274799 20.1186 -0.136302 1.06669e-005 -33.8506 6.56856e-006 5.53345e-008 -25.3764 1.66907e-009 -8.00265 -0.194463 9.89569e-007 -56.1107 -0.483242 1.77056 0.172075 0.0931189 -10.2087 -6.51221 2.57104 0.0273114 2.48349e-006 -8.73734e-007 -6.44383e-007 1.58071e-006 -1.67133e-007 -6.82998e-007 -5.1684e-015 1.59028e-015 1.59028e-015 7.95139e-016 0 -0 2.48349e-006 -8.73734e-007 -6.44383e-007 1.58071e-006 -1.67133e-007 -6.82998e-007 -5.1684e-015 0 -0 2.48349e-006 -8.73734e-007 -6.44383e-007 1.58071e-006 -1.67133e-007 -6.82998e-007 -5.1684e-015 0 -0 7.95139e-016 0 -0 2.48349e-006 -8.73734e-007 -6.44383e-007 1.58071e-006 -1.67133e-007 -6.82998e-007 -5.1684e-015 0 -0 2.48349e-006 -8.73734e-007 -6.44383e-007 1.58071e-006 -1.67133e-007 -6.82998e-007 -5.1684e-015 0 -0 7.99916 -0.194703 -1.43847e-006 56.3185 -0.490172 -1.03845 -1.92524 -0.31019 9.11584 6.49224 2.60876 0.0254 -2.67658e-008 6.98212e-007 -4.7972e-007 2.32494e-007 -1.65765e-006 -9.16704e-007 -1.02864e-007 4.7972e-007 6.98212e-007 -2.38542e-015 1.59028e-015 3.18055e-015 -2.67658e-008 6.98212e-007 -4.7972e-007 2.32494e-007 -1.65765e-006 -9.16704e-007 -1.02864e-007 4.7972e-007 6.98212e-007 -2.67658e-008 6.98212e-007 -4.7972e-007 2.32494e-007 -1.65765e-006 -9.16704e-007 -1.02864e-007 4.7972e-007 6.98212e-007 -2.38542e-015 1.59028e-015 3.18055e-015 -2.67658e-008 6.98212e-007 -4.7972e-007 2.32494e-007 -1.65765e-006 -9.16704e-007 -1.02864e-007 4.7972e-007 6.98212e-007 -2.67658e-008 6.98212e-007 -4.7972e-007 2.32494e-007 -1.65765e-006 -9.16704e-007 -1.02864e-007 4.7972e-007 6.98212e-007 6.86559 13.4684 12.0381 0.504813 32.8981 0.142035 -11.2181 -17.1414 2.21944 -5.8716 13.3362 -12.3279 -0.534279 33.2557 -0.109337 10.3532 -17.5746 -2.57318 
